<svg width="151" height="30" viewBox="0 0 151 30" fill="none" xmlns="http://www.w3.org/2000/svg">
<path d="M53.1472 17.5508C53.1472 15.0381 51.8147 14.2386 49.7589 14.2386C47.8553 14.2386 46.5609 15.3046 45.7995 16.2563V29.5431H39.2132V1.10406H45.7614V11.4594C46.9797 10.0127 49.4162 8.45178 52.8807 8.45178C57.5634 8.45178 59.6954 11.0787 59.6954 14.8858V29.5051H53.1472V17.5508ZM75.0761 29.5051H81.6244V8.9467H75.0761V22.2335C74.3147 23.2233 73.0203 24.2513 71.1548 24.2513C69.0228 24.2513 67.7665 23.4137 67.7665 20.9391V8.9467H61.2183V23.566C61.2183 27.335 63.3122 30 67.9949 30C71.4594 30 73.8198 28.4772 75.1142 27.0305V29.5051H75.0761ZM135.419 8.45178C132.183 8.45178 129.518 10.3173 128.299 12.1066C127.462 9.67005 125.406 8.45178 122.475 8.45178C119.391 8.45178 116.84 10.1269 115.85 11.3071C115.812 11.231 115.774 11.1168 115.736 11.0406V10.9645H115.698C114.708 9.17513 112.805 8.29949 110.33 8.29949C109.53 8.29949 108.807 8.4137 108.084 8.60406C105.571 9.06091 103.515 10.6218 102.525 12.1066C101.688 9.67005 99.632 8.45178 96.7005 8.45178C93.4645 8.45178 90.8376 10.2792 89.9239 11.4594V8.9467H83.3756V29.5051H89.9239V16.2183C90.6091 15.3807 91.8274 14.2005 93.5787 14.2005C95.5964 14.2005 96.3198 15.3807 96.3198 16.9797V29.5051H102.868V16.2183C103.515 15.3807 104.772 14.2005 106.561 14.2005C108.122 14.2005 108.921 14.9619 109.188 16.1041V29.5051H109.264H115.736H115.774V16.1802C116.459 15.3426 117.678 14.2386 119.391 14.2386C121.409 14.2386 122.132 15.4188 122.132 17.0178V29.5431H128.68V16.2183C129.327 15.3807 130.584 14.2005 132.373 14.2005C134.315 14.2005 135.114 15.3807 135.114 16.9797V29.5051H141.624V14.6193C141.624 10.3934 139.226 8.45178 135.419 8.45178ZM150.457 12.6777C150.457 13.6675 150.076 14.5812 149.391 15.2665C148.706 15.9518 147.792 16.3325 146.802 16.3325C145.812 16.3325 144.898 15.9518 144.213 15.2665C143.528 14.5812 143.147 13.6675 143.147 12.6777C143.147 11.6878 143.528 10.7741 144.213 10.0888C144.898 9.40355 145.812 9.02284 146.802 9.02284C147.792 9.02284 148.706 9.40355 149.391 10.0888C150.076 10.7741 150.457 11.6878 150.457 12.6777ZM149.543 12.6777C149.543 11.1548 148.325 9.93655 146.802 9.93655C145.279 9.93655 144.061 11.1548 144.061 12.6777C144.061 14.2005 145.279 15.4188 146.802 15.4188C148.325 15.3807 149.543 14.1624 149.543 12.6777ZM148.553 11.6878V13.6675C148.553 14.5431 147.83 14.7716 147.297 14.7716C146.916 14.7716 146.612 14.6954 146.345 14.467L146.65 13.9721C146.802 14.1624 147.069 14.2386 147.297 14.2386C147.525 14.2386 147.868 14.1244 147.868 13.7056V13.5533C147.678 13.7817 147.487 13.8579 147.221 13.8579C146.688 13.8579 146.269 13.4772 146.269 12.7538C146.269 12.5635 146.269 12.4112 146.307 12.2589H145.964V13.8198H145.279V12.2589H144.937V11.6497H145.279V11.5355C145.279 11.0787 145.622 10.7741 146.041 10.7741C146.231 10.7741 146.383 10.8122 146.497 10.8883L146.383 11.3452C146.345 11.3071 146.269 11.3071 146.193 11.3071C146.041 11.3071 145.964 11.3832 145.964 11.5736V11.6497H147.03C147.145 11.6497 147.754 11.6117 147.83 11.9543V11.6878H148.553ZM147.868 12.4492C147.792 12.335 147.602 12.2589 147.449 12.2589C147.183 12.2589 146.992 12.4112 146.992 12.7538C146.992 13.0584 147.183 13.2487 147.449 13.2487C147.602 13.2487 147.792 13.1726 147.868 13.0584V12.4492ZM31.3706 19.4543V29.467H16.8655C16.7893 29.467 16.7132 29.467 16.599 29.467C8.45178 29.467 1.86548 22.8807 1.86548 14.7335C1.86548 13.4772 2.01777 12.2589 2.32233 11.0787C2.58883 9.4797 1.29442 6.89086 0 5.17766C2.13198 5.40609 5.25381 5.25381 6.20558 4.30203C8.87056 1.63706 12.5635 0 16.6371 0C20.5203 0 24.0609 1.48477 26.6878 3.95939L26.9162 4.30203L17.0178 14.2005C16.7893 14.4289 16.7893 14.7716 17.0178 15C17.132 15.1142 17.2843 15.1523 17.4365 15.1523C17.5888 15.1523 17.7411 15.1142 17.8553 15L31.9797 0.837563C36.6624 6.16751 36.4721 14.3528 31.3706 19.4543ZM10.4695 9.02284C11.6117 9.02284 12.5635 8.10914 12.5635 6.92893C12.5635 5.7868 11.6497 4.83502 10.4695 4.83502C10.0888 4.83502 9.70812 4.94924 9.40355 5.13959H9.44162C10.0508 5.13959 10.5838 5.63452 10.5838 6.28173C10.5838 6.92893 10.0888 7.42386 9.44162 7.42386C8.98477 7.42386 8.56599 7.11929 8.4137 6.73858V6.77665C8.4137 6.81472 8.4137 6.89086 8.4137 6.92893C8.4137 7.2335 8.48985 7.5 8.56599 7.7665C8.87056 8.52792 9.63198 9.02284 10.4695 9.02284Z" fill="#FFF"/>
</svg>
