<svg id="f12bc8ae-39fb-4d0c-8374-6edcf1cb4ba2" data-name="Layer 1" xmlns="http://www.w3.org/2000/svg" viewBox="0 0 175.7 70.74"><defs><style>.\32 4ec216e-3810-4781-b434-2e1ab1bb9e2f{fill:#b3b3b3;}.\38 579ab63-eca7-4467-ab99-65d845dde715{fill:#fa8b23;}</style></defs><title>OX-POS-documentation</title><path class="24ec216e-3810-4781-b434-2e1ab1bb9e2f" d="M13.51,62.53A21.22,21.22,0,0,1,17,62.26a5.81,5.81,0,0,1,4,1.18,3.81,3.81,0,0,1,1.24,3,4.16,4.16,0,0,1-1.09,3A5.86,5.86,0,0,1,16.81,71a6.26,6.26,0,0,1-1.47-.13v5.67H13.51Zm1.83,6.82a6.15,6.15,0,0,0,1.51.15c2.2,0,3.55-1.07,3.55-3s-1.32-2.77-3.34-2.77a7.67,7.67,0,0,0-1.72.15Z" transform="translate(-12.05 -6)"/><path class="24ec216e-3810-4781-b434-2e1ab1bb9e2f" d="M36.78,69.29c0,4.87-3,7.45-6.57,7.45s-6.36-2.9-6.36-7.18c0-4.49,2.79-7.43,6.57-7.43S36.78,65.09,36.78,69.29Zm-11,.23c0,3,1.64,5.73,4.51,5.73s4.54-2.67,4.54-5.88c0-2.81-1.47-5.75-4.51-5.75S25.8,66.41,25.8,69.52Z" transform="translate(-12.05 -6)"/><path class="24ec216e-3810-4781-b434-2e1ab1bb9e2f" d="M38.9,74.29a6.47,6.47,0,0,0,3.28.92c1.87,0,3-1,3-2.41s-.76-2.08-2.67-2.81c-2.31-.82-3.74-2-3.74-4,0-2.21,1.83-3.84,4.58-3.84a6.44,6.44,0,0,1,3.13.69l-.5,1.49a5.64,5.64,0,0,0-2.69-.67c-1.93,0-2.67,1.15-2.67,2.12,0,1.32.86,2,2.81,2.73,2.39.92,3.61,2.08,3.61,4.16s-1.62,4.07-5,4.07a7.31,7.31,0,0,1-3.61-.9Z" transform="translate(-12.05 -6)"/><path class="24ec216e-3810-4781-b434-2e1ab1bb9e2f" d="M62.67,61.61V73.89c0,.9,0,1.93.08,2.62H61.1L61,74.75h0a3.76,3.76,0,0,1-3.46,2c-2.46,0-4.35-2.08-4.35-5.17,0-3.38,2.08-5.46,4.56-5.46a3.4,3.4,0,0,1,3.07,1.55h0V61.61Zm-1.85,8.88a3.26,3.26,0,0,0-.08-.78,2.72,2.72,0,0,0-2.67-2.14c-1.91,0-3,1.68-3,3.93,0,2.06,1,3.76,3,3.76A2.78,2.78,0,0,0,60.74,73a3.21,3.21,0,0,0,.08-.8Z" transform="translate(-12.05 -6)"/><path class="24ec216e-3810-4781-b434-2e1ab1bb9e2f" d="M74.94,71.35c0,3.76-2.6,5.4-5.06,5.4-2.75,0-4.87-2-4.87-5.23,0-3.4,2.23-5.4,5-5.4S74.94,68.24,74.94,71.35Zm-8.06.11c0,2.22,1.28,3.9,3.09,3.9S73,73.7,73,71.41c0-1.72-.86-3.9-3-3.9S66.87,69.52,66.87,71.45Z" transform="translate(-12.05 -6)"/><path class="24ec216e-3810-4781-b434-2e1ab1bb9e2f" d="M84.51,76.13a6.81,6.81,0,0,1-2.92.59,4.83,4.83,0,0,1-5.06-5.19A5.16,5.16,0,0,1,82,66.14a6.18,6.18,0,0,1,2.56.53l-.42,1.43A4.28,4.28,0,0,0,82,67.61a3.83,3.83,0,0,0-.06,7.64,5.24,5.24,0,0,0,2.27-.5Z" transform="translate(-12.05 -6)"/><path class="24ec216e-3810-4781-b434-2e1ab1bb9e2f" d="M95.18,73.74c0,1,0,2,.08,2.77H93.63l-.11-1.66h0a3.82,3.82,0,0,1-3.36,1.89c-1.6,0-3.51-.88-3.51-4.45V66.35h1.85V72c0,1.93.59,3.23,2.27,3.23a2.67,2.67,0,0,0,2.44-1.68,2.72,2.72,0,0,0,.17-.95V66.35h1.85Z" transform="translate(-12.05 -6)"/><path class="24ec216e-3810-4781-b434-2e1ab1bb9e2f" d="M98.25,69.1c0-1.05,0-1.91-.08-2.75h1.62L99.86,68h.06a3.5,3.5,0,0,1,3.19-1.87,3,3,0,0,1,2.88,2h0a4.18,4.18,0,0,1,1.13-1.32,3.46,3.46,0,0,1,2.25-.71c1.34,0,3.34.88,3.34,4.41v6H111V70.76c0-2-.71-3.13-2.2-3.13a2.39,2.39,0,0,0-2.18,1.68,3,3,0,0,0-.15.92v6.28h-1.81V70.42c0-1.62-.71-2.79-2.12-2.79a2.52,2.52,0,0,0-2.29,1.85,2.56,2.56,0,0,0-.15.9v6.13h-1.8Z" transform="translate(-12.05 -6)"/><path class="24ec216e-3810-4781-b434-2e1ab1bb9e2f" d="M116.79,71.77a3.26,3.26,0,0,0,3.49,3.53,6.67,6.67,0,0,0,2.81-.53l.31,1.32a8.23,8.23,0,0,1-3.38.63c-3.13,0-5-2.06-5-5.12s1.81-5.48,4.77-5.48c3.32,0,4.2,2.92,4.2,4.79a6.89,6.89,0,0,1-.06.86Zm5.42-1.32c0-1.18-.48-3-2.56-3-1.87,0-2.69,1.72-2.83,3Z" transform="translate(-12.05 -6)"/><path class="24ec216e-3810-4781-b434-2e1ab1bb9e2f" d="M126.28,69.1c0-1.05,0-1.91-.08-2.75h1.64l.11,1.68h0a3.74,3.74,0,0,1,3.36-1.91c1.41,0,3.59.84,3.59,4.33v6.07h-1.85V70.65c0-1.64-.61-3-2.35-3a2.63,2.63,0,0,0-2.48,1.89,2.66,2.66,0,0,0-.12.86v6.11h-1.85Z" transform="translate(-12.05 -6)"/><path class="24ec216e-3810-4781-b434-2e1ab1bb9e2f" d="M140.08,63.43v2.92h2.64v1.41h-2.64v5.48c0,1.26.36,2,1.38,2a4.09,4.09,0,0,0,1.07-.13l.08,1.39a4.53,4.53,0,0,1-1.64.25,2.56,2.56,0,0,1-2-.78,3.76,3.76,0,0,1-.71-2.64V67.76H136.7V66.35h1.57V63.92Z" transform="translate(-12.05 -6)"/><path class="24ec216e-3810-4781-b434-2e1ab1bb9e2f" d="M150.43,76.51l-.15-1.28h-.06a3.79,3.79,0,0,1-3.11,1.51A2.9,2.9,0,0,1,144,73.83c0-2.46,2.18-3.8,6.11-3.78v-.21a2.1,2.1,0,0,0-2.31-2.35,5.06,5.06,0,0,0-2.65.76L144.74,67a6.31,6.31,0,0,1,3.34-.9c3.11,0,3.86,2.12,3.86,4.16v3.8a14.21,14.21,0,0,0,.17,2.44Zm-.27-5.19c-2,0-4.3.32-4.3,2.29a1.64,1.64,0,0,0,1.74,1.76,2.53,2.53,0,0,0,2.46-1.7,1.91,1.91,0,0,0,.11-.59Z" transform="translate(-12.05 -6)"/><path class="24ec216e-3810-4781-b434-2e1ab1bb9e2f" d="M157.07,63.43v2.92h2.64v1.41h-2.64v5.48c0,1.26.36,2,1.38,2a4.09,4.09,0,0,0,1.07-.13l.08,1.39a4.53,4.53,0,0,1-1.64.25,2.56,2.56,0,0,1-2-.78,3.76,3.76,0,0,1-.71-2.64V67.76h-1.57V66.35h1.57V63.92Z" transform="translate(-12.05 -6)"/><path class="24ec216e-3810-4781-b434-2e1ab1bb9e2f" d="M163.85,63.5a1.14,1.14,0,0,1-2.29,0,1.13,1.13,0,0,1,1.15-1.16A1.1,1.1,0,0,1,163.85,63.5Zm-2.06,13V66.35h1.85V76.51Z" transform="translate(-12.05 -6)"/><path class="24ec216e-3810-4781-b434-2e1ab1bb9e2f" d="M175.9,71.35c0,3.76-2.6,5.4-5.06,5.4-2.75,0-4.87-2-4.87-5.23,0-3.4,2.23-5.4,5-5.4S175.9,68.24,175.9,71.35Zm-8.06.11c0,2.22,1.28,3.9,3.09,3.9S174,73.7,174,71.41c0-1.72-.86-3.9-3-3.9S167.84,69.52,167.84,71.45Z" transform="translate(-12.05 -6)"/><path class="24ec216e-3810-4781-b434-2e1ab1bb9e2f" d="M178.24,69.1c0-1.05,0-1.91-.08-2.75h1.64l.11,1.68h0a3.74,3.74,0,0,1,3.36-1.91c1.41,0,3.59.84,3.59,4.33v6.07H185V70.65c0-1.64-.61-3-2.35-3a2.63,2.63,0,0,0-2.48,1.89,2.66,2.66,0,0,0-.12.86v6.11h-1.85Z" transform="translate(-12.05 -6)"/><path class="8579ab63-eca7-4467-ab99-65d845dde715" d="M106,14.19a15,15,0,0,0-15,15V29.1h0V52.67A2.93,2.93,0,0,0,94,55.59h0V56H96.3c.33-.22.58-.51.54-.8V41a15,15,0,0,0,24.11-11.89,14.91,14.91,0,0,0-14.93-15m0,24.72a9.75,9.75,0,1,1,9.75-9.75A9.74,9.74,0,0,1,106,38.91" transform="translate(-12.05 -6)"/><path class="8579ab63-eca7-4467-ab99-65d845dde715" d="M154.84,29.57v-.39c0-7.79-6.35-14.72-14.13-15.05a15,15,0,1,0-.57,29.93,14.35,14.35,0,0,0,8.94-3.13v1A2.91,2.91,0,0,0,152,44.89h2.59c.33.11.58-.14.7-.43v0h0v-3.7h0l-.41-11.15ZM140.11,39a9.75,9.75,0,1,1,9.75-9.75A9.74,9.74,0,0,1,140.11,39" transform="translate(-12.05 -6)"/><path class="8579ab63-eca7-4467-ab99-65d845dde715" d="M187.75,17h0l0,0h-.12l-1.6-1.6h0l0,0a3,3,0,0,0-4.11,0h0l0,0h0l-10,10-10-10h0a2.92,2.92,0,0,0-4.11,0v0h0l-1.6,1.6h0l0,0a.63.63,0,0,0,0,.82l0,0,1.56,1.56h0l11.15,11.15V42h0a2.9,2.9,0,0,0,2.88,2.88H174a.58.58,0,0,0,.57-.58h0V40.57h0V30.64l1.28-1.28h0l9.05-9h0l2.59-2.59h0l0,0a.59.59,0,0,0,0-.82" transform="translate(-12.05 -6)"/><path class="8579ab63-eca7-4467-ab99-65d845dde715" d="M17.27,29.2A9.75,9.75,0,1,1,27,39a9.74,9.74,0,0,1-9.75-9.75M12,29.2a15,15,0,1,0,15-15,15,15,0,0,0-15,15" transform="translate(-12.05 -6)"/><path class="8579ab63-eca7-4467-ab99-65d845dde715" d="M45.61,15.21s-.08.08-.08.12L44,16.86h0l0,0a.63.63,0,0,0,0,.82l0,0,2.59,2.59h0L69.84,43.6l0,0a3,3,0,0,0,3.95-.16l0,0,1.6-1.6h0l0,0a.63.63,0,0,0,0-.82l0,0-2.59-2.59h0L49.73,15.17h0a2.86,2.86,0,0,0-2.06-.82,2.9,2.9,0,0,0-2.06.86" transform="translate(-12.05 -6)"/><path class="8579ab63-eca7-4467-ab99-65d845dde715" d="M70.79,14.1l0,0-1.56,1.56,0,0,0,0h0l-8.06,8,4.11,4.11,8-8h0l0,0a3,3,0,0,0,0-4.11l0,0-1.6-1.6h0l0,0a.59.59,0,0,0-.41-.16,1,1,0,0,0-.33.21" transform="translate(-12.05 -6)"/><path class="8579ab63-eca7-4467-ab99-65d845dde715" d="M46.4,38.46h0a3,3,0,0,0,.16,3.95h0l1.65,1.65h0a0,0,0,0,0,0,0h0a.63.63,0,0,0,.82,0l0,0,2.59-2.59h0l6.58-6.58-4.11-4.11Z" transform="translate(-12.05 -6)"/><path class="8579ab63-eca7-4467-ab99-65d845dde715" d="M80.09,8.92A2.92,2.92,0,1,0,83,6a2.93,2.93,0,0,0-2.92,2.92" transform="translate(-12.05 -6)"/><path class="8579ab63-eca7-4467-ab99-65d845dde715" d="M82.77,14H80.53a.58.58,0,0,0-.56.58h0v2.31h0V41.06h0v.08a2.9,2.9,0,0,0,2.84,2.93h2.36a.65.65,0,0,0,.56-.58v0h0V16.93h0a3,3,0,0,0-3-2.89h0" transform="translate(-12.05 -6)"/></svg>